<mxfile host="app.diagrams.net" modified="2024-01-12T14:07:35.158Z" agent="Mozilla/5.0 (Windows NT 10.0; Win64; x64) AppleWebKit/537.36 (KHTML, like Gecko) Chrome/119.0.0.0 Safari/537.36 OPR/105.0.0.0 (Edition Yx GX)" etag="QtDe6thfH1T8t5N8sDwz" version="22.1.16" type="github">
  <diagram name="Страница — 1" id="6QtUBHKThpGNqm_M2KO6">
    <mxGraphModel dx="1393" dy="758" grid="0" gridSize="10" guides="1" tooltips="1" connect="1" arrows="1" fold="1" page="1" pageScale="1" pageWidth="1169" pageHeight="827" math="0" shadow="0">
      <root>
        <mxCell id="0" />
        <mxCell id="1" parent="0" />
        <mxCell id="6hAA2MtbQ6eCZ2_qXM9v-13" style="rounded=0;orthogonalLoop=1;jettySize=auto;html=1;entryX=0;entryY=0.5;entryDx=0;entryDy=0;" edge="1" parent="1" source="6hAA2MtbQ6eCZ2_qXM9v-1" target="6hAA2MtbQ6eCZ2_qXM9v-2">
          <mxGeometry relative="1" as="geometry" />
        </mxCell>
        <mxCell id="6hAA2MtbQ6eCZ2_qXM9v-14" style="rounded=0;orthogonalLoop=1;jettySize=auto;html=1;exitX=1;exitY=0.3333333333333333;exitDx=0;exitDy=0;exitPerimeter=0;entryX=0;entryY=0.5;entryDx=0;entryDy=0;" edge="1" parent="1" source="6hAA2MtbQ6eCZ2_qXM9v-1" target="6hAA2MtbQ6eCZ2_qXM9v-5">
          <mxGeometry relative="1" as="geometry" />
        </mxCell>
        <mxCell id="6hAA2MtbQ6eCZ2_qXM9v-15" style="rounded=0;orthogonalLoop=1;jettySize=auto;html=1;entryX=0;entryY=0.5;entryDx=0;entryDy=0;" edge="1" parent="1" source="6hAA2MtbQ6eCZ2_qXM9v-1" target="6hAA2MtbQ6eCZ2_qXM9v-10">
          <mxGeometry relative="1" as="geometry" />
        </mxCell>
        <mxCell id="6hAA2MtbQ6eCZ2_qXM9v-1" value="Пользователь&lt;br&gt;" style="shape=umlActor;verticalLabelPosition=bottom;verticalAlign=top;html=1;outlineConnect=0;" vertex="1" parent="1">
          <mxGeometry x="40" y="280" width="40" height="80" as="geometry" />
        </mxCell>
        <mxCell id="6hAA2MtbQ6eCZ2_qXM9v-16" style="rounded=0;orthogonalLoop=1;jettySize=auto;html=1;exitX=1;exitY=0.5;exitDx=0;exitDy=0;entryX=0;entryY=0.5;entryDx=0;entryDy=0;" edge="1" parent="1" source="6hAA2MtbQ6eCZ2_qXM9v-2" target="6hAA2MtbQ6eCZ2_qXM9v-3">
          <mxGeometry relative="1" as="geometry" />
        </mxCell>
        <mxCell id="6hAA2MtbQ6eCZ2_qXM9v-17" style="rounded=0;orthogonalLoop=1;jettySize=auto;html=1;" edge="1" parent="1" source="6hAA2MtbQ6eCZ2_qXM9v-2" target="6hAA2MtbQ6eCZ2_qXM9v-4">
          <mxGeometry relative="1" as="geometry" />
        </mxCell>
        <mxCell id="6hAA2MtbQ6eCZ2_qXM9v-2" value="Просмотреть список продуктов&lt;br&gt;" style="ellipse;whiteSpace=wrap;html=1;" vertex="1" parent="1">
          <mxGeometry x="240" y="80" width="120" height="80" as="geometry" />
        </mxCell>
        <mxCell id="6hAA2MtbQ6eCZ2_qXM9v-3" value="Сортировка по категории&lt;br&gt;" style="ellipse;whiteSpace=wrap;html=1;" vertex="1" parent="1">
          <mxGeometry x="440" y="40" width="120" height="80" as="geometry" />
        </mxCell>
        <mxCell id="6hAA2MtbQ6eCZ2_qXM9v-4" value="Поиск по названию&lt;br&gt;" style="ellipse;whiteSpace=wrap;html=1;" vertex="1" parent="1">
          <mxGeometry x="440" y="160" width="120" height="80" as="geometry" />
        </mxCell>
        <mxCell id="6hAA2MtbQ6eCZ2_qXM9v-18" style="rounded=0;orthogonalLoop=1;jettySize=auto;html=1;exitX=1;exitY=0.5;exitDx=0;exitDy=0;entryX=0;entryY=0.5;entryDx=0;entryDy=0;dashed=1;" edge="1" parent="1" source="6hAA2MtbQ6eCZ2_qXM9v-5" target="6hAA2MtbQ6eCZ2_qXM9v-6">
          <mxGeometry relative="1" as="geometry" />
        </mxCell>
        <mxCell id="6hAA2MtbQ6eCZ2_qXM9v-25" value="&amp;lt;&amp;lt;Include&amp;gt;&amp;gt;" style="edgeLabel;html=1;align=center;verticalAlign=middle;resizable=0;points=[];" vertex="1" connectable="0" parent="6hAA2MtbQ6eCZ2_qXM9v-18">
          <mxGeometry x="-0.0193" y="-1" relative="1" as="geometry">
            <mxPoint as="offset" />
          </mxGeometry>
        </mxCell>
        <mxCell id="6hAA2MtbQ6eCZ2_qXM9v-19" style="rounded=0;orthogonalLoop=1;jettySize=auto;html=1;exitX=1;exitY=0.5;exitDx=0;exitDy=0;entryX=0;entryY=0.5;entryDx=0;entryDy=0;dashed=1;" edge="1" parent="1" source="6hAA2MtbQ6eCZ2_qXM9v-5" target="6hAA2MtbQ6eCZ2_qXM9v-9">
          <mxGeometry relative="1" as="geometry" />
        </mxCell>
        <mxCell id="6hAA2MtbQ6eCZ2_qXM9v-26" value="&amp;lt;&amp;lt;Include&amp;gt;&amp;gt;" style="edgeLabel;html=1;align=center;verticalAlign=middle;resizable=0;points=[];" vertex="1" connectable="0" parent="6hAA2MtbQ6eCZ2_qXM9v-19">
          <mxGeometry x="-0.1861" y="-3" relative="1" as="geometry">
            <mxPoint as="offset" />
          </mxGeometry>
        </mxCell>
        <mxCell id="6hAA2MtbQ6eCZ2_qXM9v-20" style="rounded=0;orthogonalLoop=1;jettySize=auto;html=1;exitX=1;exitY=0.5;exitDx=0;exitDy=0;entryX=0;entryY=0.5;entryDx=0;entryDy=0;dashed=1;" edge="1" parent="1" source="6hAA2MtbQ6eCZ2_qXM9v-5" target="6hAA2MtbQ6eCZ2_qXM9v-7">
          <mxGeometry relative="1" as="geometry" />
        </mxCell>
        <mxCell id="6hAA2MtbQ6eCZ2_qXM9v-27" value="&amp;lt;&amp;lt;Include&amp;gt;&amp;gt;" style="edgeLabel;html=1;align=center;verticalAlign=middle;resizable=0;points=[];" vertex="1" connectable="0" parent="6hAA2MtbQ6eCZ2_qXM9v-20">
          <mxGeometry x="0.086" relative="1" as="geometry">
            <mxPoint as="offset" />
          </mxGeometry>
        </mxCell>
        <mxCell id="6hAA2MtbQ6eCZ2_qXM9v-21" style="rounded=0;orthogonalLoop=1;jettySize=auto;html=1;exitX=1;exitY=0.5;exitDx=0;exitDy=0;dashed=1;" edge="1" parent="1" source="6hAA2MtbQ6eCZ2_qXM9v-5" target="6hAA2MtbQ6eCZ2_qXM9v-8">
          <mxGeometry relative="1" as="geometry" />
        </mxCell>
        <mxCell id="6hAA2MtbQ6eCZ2_qXM9v-28" value="&amp;lt;&amp;lt;Include&amp;gt;&amp;gt;" style="edgeLabel;html=1;align=center;verticalAlign=middle;resizable=0;points=[];" vertex="1" connectable="0" parent="6hAA2MtbQ6eCZ2_qXM9v-21">
          <mxGeometry y="-4" relative="1" as="geometry">
            <mxPoint as="offset" />
          </mxGeometry>
        </mxCell>
        <mxCell id="6hAA2MtbQ6eCZ2_qXM9v-5" value="Просмотр подробной информации о продукте&lt;br&gt;" style="ellipse;whiteSpace=wrap;html=1;" vertex="1" parent="1">
          <mxGeometry x="380" y="330" width="120" height="80" as="geometry" />
        </mxCell>
        <mxCell id="6hAA2MtbQ6eCZ2_qXM9v-6" value="Просмотр цены продукта&lt;br&gt;" style="ellipse;whiteSpace=wrap;html=1;" vertex="1" parent="1">
          <mxGeometry x="600" y="200" width="120" height="80" as="geometry" />
        </mxCell>
        <mxCell id="6hAA2MtbQ6eCZ2_qXM9v-7" value="Просмотр тех. характеристик&lt;br&gt;" style="ellipse;whiteSpace=wrap;html=1;" vertex="1" parent="1">
          <mxGeometry x="600" y="440" width="120" height="80" as="geometry" />
        </mxCell>
        <mxCell id="6hAA2MtbQ6eCZ2_qXM9v-8" value="Просмотр описания&lt;br&gt;" style="ellipse;whiteSpace=wrap;html=1;" vertex="1" parent="1">
          <mxGeometry x="440" y="480" width="120" height="80" as="geometry" />
        </mxCell>
        <mxCell id="6hAA2MtbQ6eCZ2_qXM9v-9" value="Просмотр отзывов о продукте" style="ellipse;whiteSpace=wrap;html=1;" vertex="1" parent="1">
          <mxGeometry x="600" y="320" width="120" height="80" as="geometry" />
        </mxCell>
        <mxCell id="6hAA2MtbQ6eCZ2_qXM9v-22" style="rounded=0;orthogonalLoop=1;jettySize=auto;html=1;dashed=1;startArrow=classic;startFill=1;endArrow=none;endFill=0;" edge="1" parent="1" source="6hAA2MtbQ6eCZ2_qXM9v-10" target="6hAA2MtbQ6eCZ2_qXM9v-12">
          <mxGeometry relative="1" as="geometry" />
        </mxCell>
        <mxCell id="6hAA2MtbQ6eCZ2_qXM9v-31" value="&amp;lt;&amp;lt;Extend&amp;gt;&amp;gt;" style="edgeLabel;html=1;align=center;verticalAlign=middle;resizable=0;points=[];" vertex="1" connectable="0" parent="6hAA2MtbQ6eCZ2_qXM9v-22">
          <mxGeometry x="-0.0951" y="2" relative="1" as="geometry">
            <mxPoint y="-1" as="offset" />
          </mxGeometry>
        </mxCell>
        <mxCell id="6hAA2MtbQ6eCZ2_qXM9v-23" style="rounded=0;orthogonalLoop=1;jettySize=auto;html=1;entryX=0.5;entryY=0;entryDx=0;entryDy=0;dashed=1;startArrow=classic;startFill=1;endArrow=none;endFill=0;" edge="1" parent="1" source="6hAA2MtbQ6eCZ2_qXM9v-10" target="6hAA2MtbQ6eCZ2_qXM9v-11">
          <mxGeometry relative="1" as="geometry" />
        </mxCell>
        <mxCell id="6hAA2MtbQ6eCZ2_qXM9v-30" value="&amp;lt;&amp;lt;Extend&amp;gt;&amp;gt;" style="edgeLabel;html=1;align=center;verticalAlign=middle;resizable=0;points=[];" vertex="1" connectable="0" parent="6hAA2MtbQ6eCZ2_qXM9v-23">
          <mxGeometry x="0.1769" y="3" relative="1" as="geometry">
            <mxPoint x="-1" as="offset" />
          </mxGeometry>
        </mxCell>
        <mxCell id="6hAA2MtbQ6eCZ2_qXM9v-10" value="Оставить отзыв о продукте&lt;br&gt;" style="ellipse;whiteSpace=wrap;html=1;" vertex="1" parent="1">
          <mxGeometry x="240" y="440" width="120" height="80" as="geometry" />
        </mxCell>
        <mxCell id="6hAA2MtbQ6eCZ2_qXM9v-11" value="Отзыв о существующем продукте&lt;br&gt;" style="ellipse;whiteSpace=wrap;html=1;" vertex="1" parent="1">
          <mxGeometry x="80" y="600" width="120" height="80" as="geometry" />
        </mxCell>
        <mxCell id="6hAA2MtbQ6eCZ2_qXM9v-12" value="Добавление продукта в базу и отзыва к нему&lt;br&gt;" style="ellipse;whiteSpace=wrap;html=1;" vertex="1" parent="1">
          <mxGeometry x="320" y="600" width="120" height="80" as="geometry" />
        </mxCell>
        <mxCell id="6hAA2MtbQ6eCZ2_qXM9v-32" value="Просмотр верификационной отметки администратора" style="ellipse;whiteSpace=wrap;html=1;" vertex="1" parent="1">
          <mxGeometry x="200" y="240" width="120" height="80" as="geometry" />
        </mxCell>
        <mxCell id="6hAA2MtbQ6eCZ2_qXM9v-33" style="rounded=0;orthogonalLoop=1;jettySize=auto;html=1;exitX=0.5;exitY=0;exitDx=0;exitDy=0;entryX=1;entryY=0.5;entryDx=0;entryDy=0;dashed=1;" edge="1" parent="1" source="6hAA2MtbQ6eCZ2_qXM9v-5" target="6hAA2MtbQ6eCZ2_qXM9v-32">
          <mxGeometry relative="1" as="geometry">
            <mxPoint x="510" y="380" as="sourcePoint" />
            <mxPoint x="610" y="250" as="targetPoint" />
          </mxGeometry>
        </mxCell>
        <mxCell id="6hAA2MtbQ6eCZ2_qXM9v-34" value="&amp;lt;&amp;lt;Include&amp;gt;&amp;gt;" style="edgeLabel;html=1;align=center;verticalAlign=middle;resizable=0;points=[];" vertex="1" connectable="0" parent="6hAA2MtbQ6eCZ2_qXM9v-33">
          <mxGeometry x="-0.0193" y="-1" relative="1" as="geometry">
            <mxPoint as="offset" />
          </mxGeometry>
        </mxCell>
        <mxCell id="6hAA2MtbQ6eCZ2_qXM9v-36" style="edgeStyle=orthogonalEdgeStyle;rounded=0;orthogonalLoop=1;jettySize=auto;html=1;exitX=0.5;exitY=0;exitDx=0;exitDy=0;exitPerimeter=0;endArrow=block;endFill=0;endSize=18;" edge="1" parent="1" source="6hAA2MtbQ6eCZ2_qXM9v-35">
          <mxGeometry relative="1" as="geometry">
            <mxPoint x="60" y="380" as="targetPoint" />
          </mxGeometry>
        </mxCell>
        <mxCell id="6hAA2MtbQ6eCZ2_qXM9v-38" style="rounded=0;orthogonalLoop=1;jettySize=auto;html=1;exitX=1;exitY=0.3333333333333333;exitDx=0;exitDy=0;exitPerimeter=0;entryX=0;entryY=0.5;entryDx=0;entryDy=0;" edge="1" parent="1" source="6hAA2MtbQ6eCZ2_qXM9v-35" target="6hAA2MtbQ6eCZ2_qXM9v-37">
          <mxGeometry relative="1" as="geometry" />
        </mxCell>
        <mxCell id="6hAA2MtbQ6eCZ2_qXM9v-35" value="Администратор&lt;br&gt;" style="shape=umlActor;verticalLabelPosition=bottom;verticalAlign=top;html=1;outlineConnect=0;" vertex="1" parent="1">
          <mxGeometry x="40" y="720" width="40" height="80" as="geometry" />
        </mxCell>
        <mxCell id="6hAA2MtbQ6eCZ2_qXM9v-37" value="Верификация отзыва" style="ellipse;whiteSpace=wrap;html=1;" vertex="1" parent="1">
          <mxGeometry x="200" y="720" width="120" height="80" as="geometry" />
        </mxCell>
      </root>
    </mxGraphModel>
  </diagram>
</mxfile>
